<?xml version="1.0" encoding="UTF-8" standalone="no"?>
<!DOCTYPE svg PUBLIC "-//W3C//DTD SVG 1.1//EN" "http://www.w3.org/Graphics/SVG/1.1/DTD/svg11.dtd">
<svg version="1.1" xmlns="http://www.w3.org/2000/svg" xmlns:xlink="http://www.w3.org/1999/xlink" preserveAspectRatio="xMidYMid meet" viewBox="0 0 640 640" width="640" height="640"><defs><path d="M158.04 465.99C157.88 465.59 157.4 464.31 156.76 462.31C157.02 463.05 157.91 465.62 158.04 465.99ZM233.56 335.91C254.68 320.47 281 329.19 281 329.19C281 324 281 282.46 281 277.27C287.4 277.11 293.8 277.51 300.12 278.47C300.12 285.15 300.12 338.59 300.12 345.27C300.12 345.27 273.8 336.55 252.68 351.99C237.96 363.43 230.12 374.55 227.8 394.47C227.72 405.27 229.64 419.43 238.6 431.59C236.36 430.39 234.12 429.03 231.8 427.51C212.2 413.75 208.6 393.03 208.68 378.39C211 358.47 218.84 347.35 233.56 335.91ZM387 136.15C388.82 136.15 403.42 136.15 405.24 136.15C405.24 136.15 401.64 167.03 428.12 197.35C428.16 197.39 428.48 197.71 428.52 197.75C421.32 193.11 414.76 187.51 409 181.27C394.52 164.71 389 147.91 387 136.15ZM496.92 293.75C496.92 293.75 473.64 292.79 456.36 288.23C432.28 281.83 416.84 271.99 416.84 271.99C416.84 271.99 406.12 264.95 405.32 264.47C405.32 277.99 405.32 386.15 405.32 399.67C405.32 407.19 403.32 425.99 397.32 441.67C389.48 462.15 377.32 475.67 375.08 478.39C375.08 478.39 360.28 496.63 334.28 508.87C310.84 519.91 290.2 519.67 284.04 519.91C284.04 519.91 248.44 521.35 216.36 499.67C209.4 494.87 202.92 489.43 197 483.43C197.02 483.45 197.14 483.57 197.16 483.59C229.24 505.35 264.84 503.83 264.84 503.83C271 503.59 291.64 503.83 315.08 492.79C341.08 480.55 355.88 462.31 355.88 462.31C358.12 459.59 370.28 446.07 378.12 425.59C384.12 409.91 386.12 391.11 386.12 383.59C386.12 370.08 386.12 261.98 386.12 248.47C387 248.95 397.64 255.99 397.64 255.99C397.64 255.99 413.08 265.83 437.16 272.23C454.44 276.79 477.72 277.75 477.72 277.75C477.72 272.62 477.72 231.6 477.72 226.47C485.72 228.31 492.52 228.79 496.92 228.31C496.92 228.31 496.92 287.21 496.92 293.75Z" id="d2LIiQAIm"></path><path d="M477.72 277.67C477.72 277.67 454.44 276.71 437.16 272.15C413.08 265.75 397.64 255.91 397.64 255.91C397.64 255.91 386.92 248.87 386.12 248.39C386.12 261.91 386.12 370.07 386.12 383.59C386.12 391.11 384.12 409.91 378.12 425.59C370.28 446.07 358.12 459.59 355.88 462.31C355.88 462.31 341.08 480.55 315.08 492.79C291.64 503.83 271 503.59 264.84 503.83C264.84 503.83 229.24 505.27 197.16 483.59C197.14 483.57 197.02 483.45 197 483.43C193.64 479.99 190.44 476.39 187.48 472.63C177.24 459.59 171 444.23 169.4 439.83C169.4 439.82 169.4 439.76 169.4 439.75C166.84 432.15 161.56 413.75 162.28 396.07C163.56 364.79 174.12 345.51 176.92 340.71C184.28 327.59 193.96 315.83 205.32 305.99C215.4 297.51 226.84 290.71 239.08 285.99C252.36 280.39 266.6 277.43 281 277.19C281 282.38 281 323.92 281 329.11C281 329.11 254.68 320.39 233.56 335.83C218.84 347.27 211 358.39 208.68 378.31C208.6 392.95 212.2 413.67 231.88 427.51C234.2 429.03 236.44 430.39 238.68 431.59C242.12 436.23 246.28 440.31 251.08 443.67C270.36 456.39 286.44 457.27 307.08 449.03C320.84 443.51 331.16 431.11 335.96 417.27C339 408.63 338.92 399.99 338.92 391.03C338.92 374.04 338.92 289.08 338.92 136.15C367.72 136.15 383.72 136.15 386.92 136.15C388.92 147.91 394.36 164.71 408.92 181.27C414.76 187.51 421.32 193.11 428.44 197.75C430.52 200.07 441.32 211.27 455.24 218.23C462.36 221.83 469.96 224.55 477.72 226.39C477.72 236.65 477.72 272.54 477.72 277.67Z" id="aE4BYRZK"></path><path d="M205.32 306.07C193.88 315.91 184.28 327.75 176.92 340.87C174.12 345.67 163.56 364.87 162.28 396.23C161.56 413.99 166.92 432.31 169.4 439.91C169.4 439.92 169.4 439.98 169.4 439.99C171 444.31 177.24 459.75 187.48 472.79C190.44 476.55 193.64 480.15 197 483.59C186.12 476.07 176.52 467.03 168.28 456.71C158.12 443.83 151.88 428.55 150.28 424.07C150.28 424.05 150.28 423.93 150.28 423.91C147.72 416.31 142.36 397.91 143.16 380.15C144.44 348.87 155 329.59 157.8 324.79C165.16 311.67 174.76 299.83 186.2 289.99C196.28 281.51 207.72 274.71 219.96 269.99C227.64 266.79 235.64 264.47 243.8 262.95C256.12 260.79 268.68 260.63 281.08 262.39C281.08 263.88 281.08 275.78 281.08 277.27C266.6 277.51 252.36 280.47 239.08 286.07C226.76 290.79 215.4 297.59 205.32 306.07Z" id="k2aNIxheZ"></path><path d="M339 136.15C339 289.08 339 374.04 339 391.03C339 399.99 339 408.63 336.04 417.27C331.16 431.03 320.84 443.51 307.16 449.03C286.52 457.35 270.36 456.39 251.16 443.67C246.36 440.39 242.2 436.31 238.76 431.67C255.16 440.39 269.8 440.23 287.96 432.95C301.72 427.43 312.04 414.95 316.84 401.19C319.88 392.55 319.8 383.91 319.8 374.95C319.8 357.96 319.8 273 319.8 120.07C359.59 120.07 381.7 120.07 386.12 120.07C386.04 120.07 385.32 126.39 387 136.15C387 136.15 371 136.15 339 136.15ZM477.72 226.39C469.96 224.55 462.36 221.83 455.24 218.23C441.4 211.35 430.6 200.07 428.44 197.75C430.92 199.35 433.4 200.79 436.04 202.15C453 210.55 469.56 213.11 477.72 212.23C477.72 215.06 477.72 224.97 477.72 226.39Z" id="bt5gwARmW"></path></defs><g><g><g><use xlink:href="#d2LIiQAIm" opacity="1" fill="#ee1d52" fill-opacity="1"></use><g><use xlink:href="#d2LIiQAIm" opacity="1" fill-opacity="0" stroke="#000000" stroke-width="1" stroke-opacity="0"></use></g></g><g><use xlink:href="#aE4BYRZK" opacity="1" fill="#ffffff" fill-opacity="1"></use><g><use xlink:href="#aE4BYRZK" opacity="1" fill-opacity="0" stroke="#000000" stroke-width="1" stroke-opacity="0"></use></g></g><g><use xlink:href="#k2aNIxheZ" opacity="1" fill="#69c9d0" fill-opacity="1"></use><g><use xlink:href="#k2aNIxheZ" opacity="1" fill-opacity="0" stroke="#000000" stroke-width="1" stroke-opacity="0"></use></g></g><g><use xlink:href="#bt5gwARmW" opacity="1" fill="#69c9d0" fill-opacity="1"></use><g><use xlink:href="#bt5gwARmW" opacity="1" fill-opacity="0" stroke="#000000" stroke-width="1" stroke-opacity="0"></use></g></g></g></g></svg>